PathFileType	4	(x/y/z)	S09_M20_T07
DataRate	CameraRate	NumFrames	NumMarkers	Units	OrigDataRate	OrigDataStartFrame	OrigNumFrames
240	240	4	51	mm	240	357	570
Frame#	Time	Sternum			R.Acromium			L.Acromium			Top.Head			R.ASIS			L.ASIS			R.PSIS			L.PSIS			R.Great.Tro			L.Great.Tro			R.Iliac.Crest			L.Iliac.Crest			V.Sacral			R.Thigh.Upper.Post			R.Thigh.Lower.Ant			R.Thigh.Lower.Post			R.Thigh.Upper.Ant			R.Knee.Lat			R.Knee.Med			R.Shank.Upper.Post			R.Shank.Lower.Ant			R.Shank.Lower.Post			R.Shank.Upper.Ant			R.Ankle.Lat			R.Ankle.Med			R.Heel.Upper			R.Heel.Med			R.Heel.Lat			R.Toe.Lat			R.Toe.Med			R.Toe.Tip			L.Thigh.Upper.Post			L.Thigh.Lower.Ant			L.Thigh.Lower.Post			L.Thigh.Upper.Ant			L.Knee.Lat			L.Knee.Med			L.Shank.Upper.Post			L.Shank.Lower.Ant			L.Shank.Lower.Post			L.Shank.Upper.Ant			L.Ankle.Lat			L.Ankle.Med			L.Heel.Upper			L.Heel.Med			L.Heel.Lat			L.Toe.Lat			L.Toe.Med			L.Toe.Tip			Cervical.Spine			Back			
		X1	Y1	Z1	X2	Y2	Z2	X3	Y3	Z3	X4	Y4	Z4	X5	Y5	Z5	X6	Y6	Z6	X7	Y7	Z7	X8	Y8	Z8	X9	Y9	Z9	X10	Y10	Z10	X11	Y11	Z11	X12	Y12	Z12	X13	Y13	Z13	X14	Y14	Z14	X15	Y15	Z15	X16	Y16	Z16	X17	Y17	Z17	X18	Y18	Z18	X19	Y19	Z19	X20	Y20	Z20	X21	Y21	Z21	X22	Y22	Z22	X23	Y23	Z23	X24	Y24	Z24	X25	Y25	Z25	X26	Y26	Z26	X27	Y27	Z27	X28	Y28	Z28	X29	Y29	Z29	X30	Y30	Z30	X31	Y31	Z31	X32	Y32	Z32	X33	Y33	Z33	X34	Y34	Z34	X35	Y35	Z35	X36	Y36	Z36	X37	Y37	Z37	X38	Y38	Z38	X39	Y39	Z39	X40	Y40	Z40	X41	Y41	Z41	X42	Y42	Z42	X43	Y43	Z43	X44	Y44	Z44	X45	Y45	Z45	X46	Y46	Z46	X47	Y47	Z47	X48	Y48	Z48	X49	Y49	Z49	X50	Y50	Z50	X51	Y51	Z51	

357	1.4833	966.2	1148.1	316.81	846.23	1399.4	450.96	847.75	1392.6	142.34	824.69	1692.4	277.29	911.29	987.04	433.51	948.47	988.54	185.81	706.41	1018.3	320.52	726.26	1011.1	232.82	810.79	908.41	493.57	891.63	898.17	107.54	815.09	1069.9	465.11	838.48	1076.1	133.67	696.36	980.19	271.2	730.68	672.42	452.06	768.98	554.5	413.56	697.02	588.91	420.81	793.57	637	444.84	717.32	491.12	399.17	714.98	487.84	278.55	574.07	366.49	403.02	606.12	282.29	384.85	536.15	300.85	389.97	637.13	348.01	399.12	471.98	126.45	365.54	497.13	126.25	275.28	398.56	123.05	315.8	399.1	88.371	287.94	393.96	94.03	352.42	545.12	44.118	401.94	592.21	38.449	296.12	642	43.655	342.85	937.34	637.7	147.62	1054.8	587.67	148.14	991.28	564.76	166.22	1003.6	657.97	125.45	1078.5	516.18	158.53	1081.4	527.85	297.95	1103.3	377.93	146.2	1204.1	333.86	153.12	1143.4	312.13	150.62	1163.4	399.72	149.39	1267.1	148.97	167.94	1292.9	161.46	258.38	1246.8	70.88	227.53	1275.8	63.948	258.45	1264	49.423	198.91	1385.5	160.55	123.02	1420.2	198	225.99	1436.8	240.53	162.9	763.92	1453.4	304.22	708.74	1185	288.77
358	1.4875	972.03	1147.3	316.15	851.92	1398.5	450.37	853.16	1391.8	141.77	829.74	1691.6	276.82	916.82	986.11	433.05	954.58	987.88	185.4	712.3	1017.6	319.71	732.3	1010.4	232.07	816.02	907.73	492.98	897.99	897.58	107.06	820.76	1069	464.55	844.54	1075.4	133.13	702.29	979.52	270.36	734.74	672.3	451.71	772.55	554.1	413.42	700.76	588.91	420.38	797.5	636.51	444.61	720.53	490.95	399.03	718.44	487.49	278.39	576.56	367.25	402.85	608.07	282.81	384.89	538.23	301.83	389.85	639.5	348.35	399.11	472.99	127.63	365.6	498.3	127.26	275.44	399.61	124.8	315.9	399.89	90.185	287.95	394.76	95.722	352.44	545.36	44.291	401.97	592.5	38.533	296.21	642.15	43.569	342.92	944.26	637.08	147.2	1061.6	587.39	148.32	998.19	564.33	166.01	1010.4	657.59	125.37	1085.4	515.75	158.7	1088	527.65	297.86	1109	377.3	146.26	1209.4	332.35	153.53	1148.6	311.14	150.77	1169.3	398.55	149.72	1270.6	146.95	168.4	1296.3	159.1	258.93	1249.8	68.831	227.79	1278.8	61.752	258.65	1267	47.424	199.09	1388.9	158.31	123.62	1423.6	195.41	226.71	1440.4	238.08	163.75	769.54	1452.4	303.73	714.52	1184	288.32
359	1.4917	977.91	1146.6	315.47	857.63	1397.5	449.76	858.6	1391	141.2	834.8	1690.7	276.35	922.42	985.19	432.57	960.76	987.22	184.97	718.26	1016.9	318.9	738.41	1009.6	231.3	821.31	907.04	492.37	904.41	896.99	106.57	826.48	1068.1	463.98	850.65	1074.7	132.58	708.28	978.85	269.51	738.88	672.17	451.34	776.2	553.69	413.28	704.59	588.91	419.95	801.51	636.03	444.38	723.82	490.79	398.9	722	487.14	278.23	579.14	368.02	402.67	610.1	283.35	384.92	540.39	302.83	389.73	641.95	348.69	399.11	474.06	128.85	365.67	499.52	128.31	275.61	400.71	126.62	315.99	400.73	92.067	287.96	395.61	97.48	352.45	545.62	44.478	401.99	592.79	38.62	296.3	642.31	43.486	342.99	951.18	636.44	146.77	1068.5	587.07	148.49	1005.1	563.87	165.8	1017.2	657.17	125.27	1092.2	515.28	158.87	1094.6	527.43	297.76	1114.7	376.62	146.31	1214.6	330.74	153.95	1153.6	310.09	150.91	1175.2	397.3	150.05	1273.9	144.84	168.84	1299.4	156.63	259.48	1252.6	66.746	228.02	1281.6	59.501	258.81	1269.7	45.369	199.26	1392.1	155.92	124.21	1426.9	192.64	227.44	1443.7	235.45	164.61	775.17	1451.4	303.22	720.36	1183	287.85
360	1.4958	983.83	1145.8	314.78	863.36	1396.6	449.15	864.05	1390.3	140.62	839.86	1689.8	275.87	928.12	984.26	432.08	966.99	986.57	184.53	724.28	1016.3	318.07	744.58	1008.9	230.52	826.67	906.35	491.74	910.88	896.39	106.08	832.27	1067.2	463.4	856.82	1073.9	132.02	714.34	978.18	268.64	743.1	672.05	450.96	779.93	553.29	413.13	708.5	588.9	419.5	805.6	635.55	444.14	727.21	490.63	398.77	725.65	486.77	278.06	581.8	368.8	402.5	612.19	283.9	384.96	542.63	303.86	389.6	644.48	349.05	399.11	475.17	130.12	365.75	500.8	129.39	275.77	401.88	128.51	316.08	401.62	94.017	287.97	396.5	99.305	352.46	545.89	44.679	402.01	593.1	38.708	296.38	642.46	43.405	343.06	958.1	635.8	146.33	1075.3	586.71	148.65	1012	563.38	165.59	1024.1	656.72	125.17	1099	514.76	159.04	1101.2	527.18	297.64	1120.4	375.89	146.36	1219.7	329.03	154.37	1158.6	308.97	151.05	1180.9	395.97	150.39	1277	142.65	169.27	1302.4	154.05	260.01	1255.2	64.652	228.22	1284.2	57.218	258.96	1272.3	43.281	199.41	1395.2	153.4	124.81	1430	189.72	228.18	1447	232.66	165.49	780.8	1450.4	302.71	726.24	1181.9	287.37
